<?xml version="1.0" encoding="utf-8"?>
<!-- Generator: Adobe Illustrator 16.0.0, SVG Export Plug-In . SVG Version: 6.00 Build 0)  -->
<!DOCTYPE svg PUBLIC "-//W3C//DTD SVG 1.1//EN" "http://www.w3.org/Graphics/SVG/1.1/DTD/svg11.dtd">
<svg version="1.1" id="Layer_1" xmlns="http://www.w3.org/2000/svg" xmlns:xlink="http://www.w3.org/1999/xlink" x="0px" y="0px"
	 width="737.977px" height="737.676px" viewBox="0 0 737.977 737.676" enable-background="new 0 0 737.977 737.676"
	 xml:space="preserve">
<g>
	<linearGradient id="SVGID_1_" gradientUnits="userSpaceOnUse" x1="304.5801" y1="390.8062" x2="449.5454" y2="69.63">
		<stop  offset="0" style="stop-color:#3BBFF0"/>
		<stop  offset="0.3768" style="stop-color:#2E92D1"/>
		<stop  offset="0.8545" style="stop-color:#2B69B1"/>
		<stop  offset="1" style="stop-color:#005895"/>
	</linearGradient>
	<path fill-rule="evenodd" clip-rule="evenodd" fill="url(#SVGID_1_)" d="M360.094,480.148
		c16.91-42.943-17.975-76.835-28.613-119.721c-13.694-55.202,47.462-88.66,78.037-101.5c58.452-24.545,80.386-55.723,78.041-76.777
		c-8.555-76.756-168.978-43.367-213.696,64.552c-26.486,63.92-13.033,115.529,9.738,139.523
		C303.972,407.692,355.249,434.821,360.094,480.148L360.094,480.148z"/>
	<path fill-rule="evenodd" clip-rule="evenodd" fill="#FFCF08" d="M263.848,396.126c-48.124-35.135-13.006-75.475-39.02-113.213
		C191.011,247.777,176.705,374.003,263.848,396.126L263.848,396.126z"/>
	<linearGradient id="SVGID_2_" gradientUnits="userSpaceOnUse" x1="420.748" y1="595.2866" x2="548.8776" y2="264.8156">
		<stop  offset="0.3468" style="stop-color:#FDC800"/>
		<stop  offset="1" style="stop-color:#E3312D"/>
	</linearGradient>
	<path fill-rule="evenodd" clip-rule="evenodd" fill="url(#SVGID_2_)" d="M390.008,463.229
		c-18.208,28.627-18.208,68.967-3.901,98.897c0-57.258,39.02-84.582,87.143-91.09c66.331-10.412,131.364-49.451,101.45-126.223
		c-24.715-66.369-105.353-78.079-78.039-3.904c19.51,53.352-70.235,65.063-101.45,114.512
		C393.911,458.025,391.311,460.625,390.008,463.229L390.008,463.229z"/>
	<path fill-rule="evenodd" clip-rule="evenodd" fill="#69C6DE" d="M369.573,560.239c-58.387-63.659-107.953-2.648-80.208,26.268
		c9.057,8.282,23.936,13.662,35.347,9.144C342.989,589.749,350.488,563.343,369.573,560.239L369.573,560.239z"/>
	
		<linearGradient id="SVGID_3_" gradientUnits="userSpaceOnUse" x1="350.9214" y1="558.7065" x2="89.8428" y2="332.3131" gradientTransform="matrix(0.9993 -0.0385 0.0385 0.9993 -10.7541 3.6821)">
		<stop  offset="0" style="stop-color:#93C11F"/>
		<stop  offset="0.3768" style="stop-color:#6AB42D"/>
		<stop  offset="0.7543" style="stop-color:#068036"/>
		<stop  offset="1" style="stop-color:#005895"/>
	</linearGradient>
	<path fill-rule="evenodd" clip-rule="evenodd" fill="url(#SVGID_3_)" d="M207.957,398.192
		c35.246,51.912,90.485,7.362,127.991,55.632c19.419,27.352,24.19,53.063,28.63,84.229c-18.421-29.548-43.729-41.542-73.764-36.062
		C139.437,526.203,140.875,395.375,173.646,376.82C184.226,371.011,197.333,374.828,207.957,398.192L207.957,398.192z"/>
	<linearGradient id="SVGID_4_" gradientUnits="userSpaceOnUse" x1="394.1606" y1="529.8237" x2="503.2964" y2="529.8237">
		<stop  offset="0" style="stop-color:#6BC4CA"/>
		<stop  offset="1" style="stop-color:#6BC0AB"/>
	</linearGradient>
	<path fill-rule="evenodd" clip-rule="evenodd" fill="url(#SVGID_4_)" d="M477.861,496.46c-0.012,0-0.012-0.015-0.025,0
		c-1.406-0.409-2.859-0.706-4.34-0.908c-26.842-4.424-63.344,11.614-79.335,66.577c0,0,6.797-9.648,10.028-11.782
		c18.483-12.151,42.011,15.107,63.905,14.431c0.023,0.009,0.06,0.009,0.095,0c0.108,0.009,0.202,0.009,0.311,0.009
		c15.154,0,28.047-9.682,32.806-23.204c1.301-3.624,1.991-7.537,1.991-11.602C503.296,514.012,492.529,500.549,477.861,496.46z"/>
	<g>
		<path fill-rule="evenodd" clip-rule="evenodd" fill="#AE4F98" d="M463.288,378.774c-11.596,32.882-81.714,38.121-80.53,38.54
			c0,0-50.131-47.651-38.536-80.53c11.596-32.879,47.65-50.133,80.529-38.535C457.63,309.842,474.882,345.898,463.288,378.774z"/>
		<g>
			<path fill="#FFFFFF" d="M406.714,352.028c3.65,1.41,5.17,6.41,3.347,11.128c-1.821,4.714-13.17,25.145-16.822,23.734
				c-3.698-1.428,1.692-24.162,3.513-28.88C398.575,353.292,403.016,350.601,406.714,352.028L406.714,352.028z"/>
			<path fill="#FFFFFF" d="M397.011,388.402c-1.219-0.419,14.944-15.854,17.938-18.786
				C429.281,355.753,423.55,396.693,397.011,388.402L397.011,388.402z"/>
			<path fill="#FFFFFF" d="M389.65,385.451c1.121,0.54-0.414-21.737-0.703-25.941C387.662,339.617,364.415,373.784,389.65,385.451
				L389.65,385.451z"/>
			<path fill="#FFFFFF" d="M396.152,392.267c-0.506-0.885,17.532-0.556,20.854-0.493
				C433.075,391.979,406.556,412.074,396.152,392.267L396.152,392.267z"/>
			<path fill="#FFFFFF" d="M387.258,388.618c0.992-0.361-12.598-12.204-15.081-14.439
				C360.131,363.571,366.257,396.23,387.258,388.618L387.258,388.618z"/>
			<path fill="#FFFFFF" d="M392.39,388.954c1.061,0.413,1.602,1.63,1.189,2.692c-0.412,1.063-1.629,1.601-2.691,1.19
				c-1.062-0.409-1.602-1.626-1.19-2.692C390.108,389.082,391.326,388.543,392.39,388.954L392.39,388.954z"/>
		</g>
	</g>
</g>
</svg>
